# Blender 4.0.2
# www.blender.org
mtllib GGun.mtl
o GGun
v -0.129387 0.364649 -0.125863
v -0.151908 0.354482 0.518087
v -0.306000 0.191571 -0.135200
v -0.328520 0.181404 0.508750
v -0.308511 -0.055847 -0.138780
v -0.331031 -0.066014 0.505170
v -0.135451 -0.232672 -0.134508
v -0.157971 -0.242838 0.509442
v 0.111804 -0.235321 -0.124885
v 0.089284 -0.245487 0.519065
v 0.288417 -0.062243 -0.115548
v 0.265896 -0.072410 0.528401
v 0.290928 0.185175 -0.111968
v 0.268408 0.175008 0.531982
v 0.117868 0.361999 -0.116240
v 0.095348 0.351833 0.527709
v -0.074074 0.039341 1.217264
v -0.086566 0.039475 1.216777
v -0.095310 0.048409 1.216562
v -0.095183 0.060909 1.216742
v -0.086260 0.069653 1.217214
v -0.072342 0.134164 0.647204
v -0.119245 0.088200 0.644725
v -0.119912 0.022493 0.643774
v -0.073952 -0.024466 0.644908
v -0.008289 -0.025169 0.647464
v 0.038614 0.020795 0.649943
v 0.039281 0.086501 0.650894
v -0.006679 0.133460 0.649760
v -0.165518 0.404793 0.407566
v -0.370336 0.204074 0.396739
v -0.373248 -0.082858 0.392587
v -0.172550 -0.287921 0.397542
v 0.114193 -0.290994 0.408701
v 0.319011 -0.090275 0.419528
v 0.321924 0.196657 0.423681
v 0.121225 0.401721 0.418726
v 0.152121 0.576597 1.091939
v 0.456002 0.266106 1.099441
v 0.451591 -0.168342 1.093154
v 0.141474 -0.472254 1.076760
v -0.292689 -0.467602 1.059863
v -0.596569 -0.157111 1.052361
v -0.592159 0.277337 1.058648
v -0.282041 0.581248 1.075042
v -0.017894 0.166124 -0.604360
v -0.074058 0.111084 -0.607329
v -0.074857 0.032404 -0.608467
v -0.019823 -0.023828 -0.607108
v 0.058806 -0.024670 -0.604048
v 0.114970 0.030370 -0.601079
v 0.115769 0.109051 -0.599941
v 0.060735 0.165282 -0.601299
v 0.008576 0.135210 -0.918250
v -0.026786 0.100556 -0.920119
v -0.027289 0.051017 -0.920836
v 0.007362 0.015613 -0.919980
v 0.056868 0.015083 -0.918054
v 0.092229 0.049737 -0.916184
v 0.092732 0.099275 -0.915468
v 0.058082 0.134679 -0.916323
v -0.016645 0.151777 -1.168770
v -0.008126 0.026610 -1.129697
v -0.008534 -0.013581 -1.130279
v -0.020561 -0.233964 -1.174353
v 0.099128 -0.235247 -1.169695
v 0.088430 -0.014620 -1.126505
v 0.088838 0.025571 -1.125923
v 0.103043 0.150495 -1.164112
v -0.063690 -0.333132 0.027528
v 0.028032 -0.334115 0.031098
v -0.077339 -0.342430 0.225060
v 0.029032 -0.343569 0.229199
v -0.061025 -0.416891 0.031581
v 0.023386 -0.417795 0.034866
v -0.073585 -0.425447 0.213366
v 0.024306 -0.426496 0.217176
v -0.063942 -0.746179 0.015880
v 0.020469 -0.747084 0.019165
v -0.076502 -0.754736 0.197666
v 0.021389 -0.755785 0.201475
v -0.053331 -0.359071 0.170362
v 0.008973 -0.359738 0.172787
v -0.051132 -0.407695 0.163513
v 0.006204 -0.408310 0.165744
v -0.056314 -0.369595 0.244124
v 0.005989 -0.370263 0.246549
v -0.054116 -0.418220 0.237275
v 0.003221 -0.418834 0.239507
v -0.065151 0.048086 1.217735
v -0.065025 0.060586 1.217916
v -0.073768 0.069519 1.217700
vn -0.7321 -0.0024 0.6812
vn 0.4642 0.4724 0.7492
vn -0.0353 -0.6995 0.7137
vn -0.5264 -0.4986 0.6887
vn -0.0208 0.6888 0.7246
vn 0.4494 -0.4986 0.7413
vn -0.5209 0.4940 0.6962
vn 0.0244 0.9279 -0.3721
vn -0.6438 -0.6402 -0.4190
vn 0.6787 0.6563 -0.3297
vn -0.7079 -0.6958 -0.1216
vn 0.7142 0.6977 -0.0563
vn 0.6999 -0.7100 -0.0772
vn -0.9927 0.0118 -0.1203
vn 0.9983 -0.0093 -0.0576
vn 0.0116 -0.8475 -0.5306
vn -0.6936 0.7132 -0.1007
vn 0.0136 0.9972 -0.0741
vn 0.6689 -0.6646 -0.3328
vn -0.9006 0.0154 -0.4345
vn -0.6255 0.6606 -0.4151
vn 0.0048 -0.9262 -0.3770
vn 0.9497 -0.0051 -0.3131
vn -0.0246 -0.9262 0.3763
vn -0.6737 -0.6509 0.3500
vn -0.9365 0.0044 0.3505
vn -0.6582 0.6513 0.3775
vn -0.0064 0.9098 0.4150
vn 0.6361 0.6332 0.4409
vn 0.8976 -0.0155 0.4405
vn 0.6259 -0.6610 0.4138
vn 0.6622 -0.6562 -0.3617
vn -0.6377 -0.6347 -0.4365
vn -0.8964 0.0155 -0.4430
vn 0.9414 -0.0047 -0.3372
vn 0.0059 -0.9152 -0.4030
vn -0.6241 0.6595 -0.4190
vn 0.0246 0.9254 -0.3782
vn 0.6752 0.6525 -0.3441
vn -0.0057 -0.9921 -0.1256
vn -0.9864 0.1642 -0.0064
vn -0.9886 0.0122 -0.1498
vn 0.9973 -0.0091 -0.0725
vn -0.7049 -0.6935 -0.1487
vn 0.6994 -0.7086 -0.0940
vn -0.6907 0.7117 -0.1283
vn 0.7136 0.6966 -0.0737
vn 0.0144 0.9952 -0.0968
vn 0.0390 0.0141 -0.9991
vn 0.9872 0.1430 0.0704
vn 0.0082 0.9978 0.0652
vn -0.0349 -0.7114 0.7019
vn -0.9956 0.0114 -0.0927
vn 0.9998 -0.0099 -0.0150
vn -0.9907 -0.1027 0.0891
vn 0.9784 -0.1238 0.1658
vn -0.9427 0.0053 0.3337
vn -0.6798 -0.7249 -0.1114
vn -0.0216 -0.9567 0.2904
vn 0.6710 -0.7382 -0.0688
vn 0.9999 -0.0086 -0.0055
vn -0.9969 -0.0351 -0.0705
vn 0.0383 -0.0471 -0.9982
vn 0.9984 -0.0558 -0.0077
vn -0.0088 -0.9988 -0.0476
vn -0.0394 -0.0472 0.9981
vn -0.9976 0.0121 -0.0684
vn 0.0394 0.0472 -0.9981
vn -0.9982 -0.0387 -0.0459
vn -0.0029 0.9425 0.3343
vn -0.0213 -0.9590 0.2824
vn 0.9138 -0.0159 0.4059
vn -0.0400 -0.1411 0.9892
vn 0.0051 0.9899 0.1415
vn 0.9976 -0.0614 0.0316
vn -0.0051 -0.9899 -0.1415
vn 0.6545 -0.0176 0.7558
vn 0.7034 0.6923 0.1610
vn -0.0150 -0.9937 0.1108
vn -0.7002 0.7111 0.0634
vn 0.6866 -0.7093 0.1596
vn -0.9991 0.0095 0.0425
vn 0.9835 -0.0126 0.1803
vn -0.7140 -0.6973 0.0622
vn 0.0063 0.9936 0.1126
vn -0.0390 -0.0141 0.9991
vt 0.000000 0.000000
s 0
usemtl RedSteel
f 3/1/14 5/1/14 32/1/14 31/1/14
f 11/1/15 13/1/15 36/1/15 35/1/15
f 15/1/18 1/1/18 30/1/18 37/1/18
usemtl YellowSteel
f 5/1/11 7/1/11 33/1/11 32/1/11
f 13/1/12 15/1/12 37/1/12 36/1/12
f 9/1/13 11/1/13 35/1/13 34/1/13
f 1/1/17 3/1/17 31/1/17 30/1/17
f 72/1/62 70/1/62 74/1/62 76/1/62
f 70/1/63 71/1/63 75/1/63 74/1/63
f 71/1/64 73/1/64 77/1/64 75/1/64
usemtl RedButton
f 82/1/69 84/1/69 88/1/69 86/1/69
f 87/1/73 86/1/73 88/1/73 89/1/73
f 83/1/74 82/1/74 86/1/74 87/1/74
f 85/1/75 83/1/75 87/1/75 89/1/75
f 84/1/76 85/1/76 89/1/76 88/1/76
usemtl Wood
f 50/1/40 49/1/40 57/1/40 58/1/40
f 55/1/41 54/1/41 62/1/41 63/1/41
f 48/1/42 47/1/42 55/1/42 56/1/42
f 52/1/43 51/1/43 59/1/43 60/1/43
f 49/1/44 48/1/44 56/1/44 57/1/44
f 51/1/45 50/1/45 58/1/45 59/1/45
f 47/1/46 46/1/46 54/1/46 55/1/46
f 53/1/47 52/1/47 60/1/47 61/1/47
f 46/1/48 53/1/48 61/1/48 54/1/48
f 65/1/49 64/1/49 63/1/49 62/1/49 69/1/49 68/1/49 67/1/49 66/1/49
f 61/1/50 60/1/50 68/1/50 69/1/50
f 54/1/51 61/1/51 69/1/51 62/1/51
f 58/1/52 57/1/52 65/1/52 66/1/52
f 56/1/53 55/1/53 63/1/53 64/1/53
f 60/1/54 59/1/54 67/1/54 68/1/54
f 57/1/55 56/1/55 64/1/55 65/1/55
f 59/1/56 58/1/56 66/1/56 67/1/56
f 75/1/61 77/1/61 81/1/61 79/1/61
f 78/1/65 79/1/65 81/1/65 80/1/65
f 77/1/66 76/1/66 80/1/66 81/1/66
f 76/1/67 74/1/67 78/1/67 80/1/67
f 74/1/68 75/1/68 79/1/68 78/1/68
usemtl GreenSteel
f 77/1/57 73/1/57 83/1/57 85/1/57
f 76/1/70 77/1/70 85/1/70 84/1/70
f 73/1/71 72/1/71 82/1/71 83/1/71
f 72/1/72 76/1/72 84/1/72 82/1/72
usemtl Steel
f 40/1/1 39/1/1 28/1/1 27/1/1
f 43/1/2 42/1/2 25/1/2 24/1/2
f 38/1/3 45/1/3 22/1/3 29/1/3
f 39/1/4 38/1/4 29/1/4 28/1/4
f 42/1/5 41/1/5 26/1/5 25/1/5
f 45/1/6 44/1/6 23/1/6 22/1/6
f 41/1/7 40/1/7 27/1/7 26/1/7
f 16/1/8 2/1/8 45/1/8 38/1/8
f 6/1/9 8/1/9 42/1/9 43/1/9
f 14/1/10 16/1/10 38/1/10 39/1/10
f 7/1/16 9/1/16 71/1/16 70/1/16
f 10/1/19 12/1/19 40/1/19 41/1/19
f 4/1/20 6/1/20 43/1/20 44/1/20
f 2/1/21 4/1/21 44/1/21 45/1/21
f 8/1/22 10/1/22 41/1/22 42/1/22
f 12/1/23 14/1/23 39/1/23 40/1/23
f 10/1/24 8/1/24 33/1/24 34/1/24
f 33/1/25 8/1/25 6/1/25 32/1/25
f 32/1/26 6/1/26 4/1/26 31/1/26
f 31/1/27 4/1/27 2/1/27 30/1/27
f 30/1/28 2/1/28 16/1/28 37/1/28
f 37/1/29 16/1/29 14/1/29 36/1/29
f 36/1/30 14/1/30 12/1/30 35/1/30
f 35/1/31 12/1/31 10/1/31 34/1/31
f 11/1/32 9/1/32 50/1/32 51/1/32
f 7/1/33 5/1/33 48/1/33 49/1/33
f 5/1/34 3/1/34 47/1/34 48/1/34
f 13/1/35 11/1/35 51/1/35 52/1/35
f 9/1/36 7/1/36 49/1/36 50/1/36
f 3/1/37 1/1/37 46/1/37 47/1/37
f 1/1/38 15/1/38 53/1/38 46/1/38
f 15/1/39 13/1/39 52/1/39 53/1/39
f 33/1/58 7/1/58 70/1/58 72/1/58
f 34/1/59 33/1/59 72/1/59 73/1/59
f 9/1/60 34/1/60 73/1/60 71/1/60
f 44/1/77 43/1/77 24/1/77 23/1/77
f 28/1/78 29/1/78 92/1/78 91/1/78
f 25/1/79 26/1/79 17/1/79 18/1/79
f 22/1/80 23/1/80 20/1/80 21/1/80
f 26/1/81 27/1/81 90/1/81 17/1/81
f 23/1/82 24/1/82 19/1/82 20/1/82
f 27/1/83 28/1/83 91/1/83 90/1/83
f 24/1/84 25/1/84 18/1/84 19/1/84
f 29/1/85 22/1/85 21/1/85 92/1/85
f 18/1/86 17/1/86 90/1/86 91/1/86 92/1/86 21/1/86 20/1/86 19/1/86
