# Blender 4.0.2
# www.blender.org
mtllib RocketLauncher.mtl
o RocketLauncher
v 0.192900 0.380194 -0.412132
v 0.105034 0.383603 1.665240
v 0.410666 0.144673 -0.402535
v 0.322800 0.148082 1.674837
v 0.398248 -0.175999 -0.402534
v 0.310383 -0.172590 1.674838
v 0.162922 -0.393975 -0.412129
v 0.075056 -0.390566 1.665242
v -0.157463 -0.381569 -0.425701
v -0.245328 -0.378160 1.651671
v -0.375228 -0.146048 -0.435298
v -0.463094 -0.142639 1.642073
v -0.362811 0.174624 -0.435299
v -0.450677 0.178033 1.642072
v -0.127485 0.392600 -0.425703
v -0.215350 0.396010 1.651668
v 0.017594 0.301502 2.817684
v 0.187337 0.117920 2.825165
v 0.177658 -0.132035 2.825166
v -0.005773 -0.301942 2.817686
v -0.255504 -0.292271 2.807108
v -0.425246 -0.108689 2.799627
v -0.415567 0.141266 2.799626
v -0.232137 0.311173 2.807106
v 0.017755 0.157144 1.269181
v 0.099581 0.068646 1.272787
v 0.094916 -0.051848 1.272787
v 0.006491 -0.133754 1.269182
v -0.113895 -0.129092 1.264082
v -0.195722 -0.040594 1.260476
v -0.191056 0.079900 1.260476
v -0.102631 0.161805 1.264081
v 0.414316 0.745189 -1.649261
v 0.841932 0.282708 -1.630416
v 0.817548 -0.346978 -1.630414
v 0.355450 -0.775007 -1.649256
v -0.273673 -0.750646 -1.675906
v -0.701288 -0.288165 -1.694752
v -0.676905 0.341521 -1.694754
v -0.214807 0.769551 -1.675911
v 0.071821 0.166659 0.115196
v 0.295806 0.099024 -0.590404
v 0.287262 -0.121606 -0.590403
v 0.125352 -0.271579 -0.597005
v -0.095080 -0.263043 -0.606343
v -0.244908 -0.100999 -0.612946
v -0.236365 0.119631 -0.612947
v -0.074455 0.269604 -0.606345
v -0.040221 -0.586171 1.493404
v -0.131397 -0.582640 1.489542
v -0.033737 -0.586422 1.340114
v -0.124913 -0.582891 1.336252
v 0.100993 -0.396973 1.047092
v -0.219391 -0.384567 1.033520
v -0.052566 -0.904974 1.493405
v -0.143742 -0.901443 1.489543
v -0.046082 -0.905225 1.340115
v -0.137258 -0.901695 1.336253
v 0.098607 0.409478 2.091416
v 0.330766 0.158389 2.101648
v 0.317528 -0.183479 2.101649
v 0.066647 -0.415863 2.091419
v -0.274914 -0.402637 2.076950
v -0.507074 -0.151548 2.066719
v -0.493836 0.190319 2.066718
v -0.242955 0.422704 2.076947
v -0.375228 -0.146048 -0.000915
v -0.362811 0.174624 -0.000916
v -0.423226 -0.038634 0.169586
v -0.418510 0.083162 0.169586
v -0.423226 -0.038634 0.396883
v -0.418510 0.083162 0.396883
v -0.388978 -0.146048 0.567699
v -0.376560 0.174624 0.567698
v -0.409248 0.001905 0.238403
v -0.407388 0.049951 0.238403
v -0.409248 0.001905 0.328066
v -0.407388 0.049951 0.328066
v -0.425377 0.002530 0.238403
v -0.423516 0.050576 0.238403
v -0.425377 0.002530 0.328066
v -0.423516 0.050576 0.328066
vn -0.9993 0.0387 -0.0000
vn -0.7608 -0.6483 -0.0311
vn -0.9984 0.0387 -0.0423
vn -0.7049 0.7087 -0.0310
vn 0.9984 -0.0387 0.0423
vn 0.0387 0.9993 -0.0000
vn 0.7333 0.6792 0.0299
vn -0.5974 0.6647 -0.4486
vn -0.9977 0.0386 0.0552
vn -0.6793 0.7301 0.0739
vn 0.0339 0.9936 0.1082
vn 0.7244 0.6754 0.1379
vn 0.9886 -0.0383 0.1457
vn 0.6712 -0.7303 0.1270
vn -0.0424 -0.9948 0.0927
vn -0.7341 -0.6762 0.0630
vn 0.6378 -0.7025 0.3156
vn 0.9441 -0.0366 0.3275
vn 0.6903 0.6511 0.3156
vn 0.0249 0.9576 0.2870
vn -0.6621 0.7035 0.2583
vn -0.9684 0.0375 0.2465
vn -0.7145 -0.6501 0.2583
vn -0.0492 -0.9567 0.2870
vn -0.7910 -0.4789 -0.3808
vn 0.6331 -0.6661 -0.3944
vn 0.6827 0.6151 -0.3944
vn -0.8873 0.0344 -0.4599
vn 0.1755 -0.9242 -0.3392
vn 0.9230 -0.0357 -0.3832
vn 0.0529 0.9053 -0.4215
vn 0.7345 0.6774 -0.0411
vn 0.9989 -0.0387 -0.0250
vn 0.6799 -0.7326 -0.0320
vn -0.2669 -0.9627 -0.0446
vn -0.5546 -0.8301 -0.0570
vn -0.9938 0.0385 -0.1040
vn -0.6742 0.7321 -0.0970
vn 0.0416 0.9966 -0.0710
vn -0.0093 -0.8378 -0.5459
vn -0.0385 -0.9993 -0.0037
vn -0.0572 -0.6397 0.7665
vn 0.8438 -0.5352 0.0401
vn 0.6786 -0.7339 0.0299
vn -0.8829 -0.4684 -0.0331
vn -0.0387 -0.9993 -0.0000
vn -0.0423 0.0016 0.9991
vn 0.0423 -0.0016 -0.9991
vn -0.7313 -0.6712 0.1209
vn -0.6772 0.7258 0.1209
vn 0.7186 0.6717 0.1800
vn -0.0446 -0.9876 0.1505
vn -0.9933 0.0385 0.1087
vn 0.0319 0.9881 0.1505
vn 0.9806 -0.0380 0.1923
vn 0.6645 -0.7253 0.1800
vn 0.9991 -0.0387 -0.0177
vn 0.7345 0.6779 -0.0301
vn 0.0412 0.9974 -0.0599
vn -0.6748 0.7325 -0.0898
vn -0.9940 0.0385 -0.1021
vn -0.7295 -0.6781 -0.0898
vn -0.0361 -0.9976 -0.0599
vn 0.6799 -0.7327 -0.0301
vn -0.9556 0.0370 -0.2923
vn -0.9454 0.3260 -0.0000
vn -0.9749 0.0378 0.2192
vn -0.9969 0.0386 -0.0689
vn -0.8821 0.4709 -0.0152
vn -0.9338 -0.3575 -0.0161
vn -0.0000 -0.0000 -1.0000
vn -0.9834 0.0381 0.1773
vn -0.9482 -0.3176 -0.0000
vn -0.9834 0.0381 -0.1773
vn -0.0000 -0.0000 1.0000
vt 0.000000 0.000000
s 0
usemtl Steel
f 13/1/1 11/1/1 67/1/1 68/1/1
f 7/1/17 36/1/17 35/1/17 5/1/17
f 35/1/18 34/1/18 3/1/18 5/1/18
f 34/1/19 33/1/19 1/1/19 3/1/19
f 33/1/20 40/1/20 15/1/20 1/1/20
f 40/1/21 39/1/21 13/1/21 15/1/21
f 39/1/22 38/1/22 11/1/22 13/1/22
f 38/1/23 37/1/23 9/1/23 11/1/23
f 37/1/24 36/1/24 7/1/24 9/1/24
f 51/1/40 52/1/40 54/1/40 53/1/40
f 7/1/41 53/1/41 54/1/41 9/1/41
f 8/1/42 10/1/42 50/1/42 49/1/42
f 49/1/43 51/1/43 53/1/43 8/1/43
f 54/1/45 52/1/45 50/1/45 10/1/45
f 21/1/49 22/1/49 64/1/49 63/1/49
f 23/1/50 24/1/50 66/1/50 65/1/50
f 17/1/51 18/1/51 60/1/51 59/1/51
f 20/1/52 21/1/52 63/1/52 62/1/52
f 22/1/53 23/1/53 65/1/53 64/1/53
f 24/1/54 17/1/54 59/1/54 66/1/54
f 18/1/55 19/1/55 61/1/55 60/1/55
f 19/1/56 20/1/56 62/1/56 61/1/56
f 4/1/57 60/1/57 61/1/57 6/1/57
f 2/1/58 59/1/58 60/1/58 4/1/58
f 16/1/59 66/1/59 59/1/59 2/1/59
f 14/1/60 65/1/60 66/1/60 16/1/60
f 12/1/61 64/1/61 65/1/61 14/1/61
f 10/1/62 63/1/62 64/1/62 12/1/62
f 8/1/63 62/1/63 63/1/63 10/1/63
f 6/1/64 61/1/64 62/1/64 8/1/64
f 68/1/65 67/1/65 69/1/65 70/1/65
f 69/1/66 71/1/66 77/1/66 75/1/66
f 72/1/67 71/1/67 73/1/67 74/1/67
f 12/1/68 14/1/68 74/1/68 73/1/68
f 68/1/69 70/1/69 72/1/69 74/1/69
f 73/1/70 71/1/70 69/1/70 67/1/70
f 70/1/72 69/1/72 75/1/72 76/1/72
f 72/1/73 70/1/73 76/1/73 78/1/73
f 71/1/74 72/1/74 78/1/74 77/1/74
usemtl Wood
f 10/1/2 12/1/2 73/1/2 67/1/2 11/1/2 9/1/2 54/1/2
f 50/1/3 52/1/3 58/1/3 56/1/3
f 16/1/4 15/1/4 13/1/4 68/1/4 74/1/4 14/1/4
f 3/1/5 4/1/5 6/1/5 5/1/5
f 1/1/6 15/1/6 16/1/6 2/1/6
f 1/1/7 2/1/7 4/1/7 3/1/7
f 6/1/44 8/1/44 7/1/44 5/1/44
f 55/1/46 56/1/46 58/1/46 57/1/46
f 49/1/47 50/1/47 56/1/47 55/1/47
f 51/1/5 49/1/5 55/1/5 57/1/5
f 52/1/48 51/1/48 57/1/48 58/1/48
usemtl CharedSteel
f 35/1/8 36/1/8 44/1/8 43/1/8
f 18/1/9 26/1/9 27/1/9 19/1/9
f 27/1/10 28/1/10 20/1/10 19/1/10
f 28/1/11 29/1/11 21/1/11 20/1/11
f 29/1/12 30/1/12 22/1/12 21/1/12
f 30/1/13 31/1/13 23/1/13 22/1/13
f 31/1/14 32/1/14 24/1/14 23/1/14
f 32/1/15 25/1/15 17/1/15 24/1/15
f 25/1/16 26/1/16 18/1/16 17/1/16
f 33/1/25 34/1/25 42/1/25 41/1/25
f 39/1/26 40/1/26 48/1/26 47/1/26
f 37/1/27 38/1/27 46/1/27 45/1/27
f 34/1/28 35/1/28 43/1/28 42/1/28
f 40/1/29 33/1/29 41/1/29 48/1/29
f 38/1/30 39/1/30 47/1/30 46/1/30
f 36/1/31 37/1/31 45/1/31 44/1/31
f 30/1/32 29/1/32 45/1/32 46/1/32
f 31/1/33 30/1/33 46/1/33 47/1/33
f 32/1/34 31/1/34 47/1/34 48/1/34
f 25/1/35 32/1/35 48/1/35 41/1/35
f 26/1/36 25/1/36 41/1/36 42/1/36
f 27/1/37 26/1/37 42/1/37 43/1/37
f 28/1/38 27/1/38 43/1/38 44/1/38
f 29/1/39 28/1/39 44/1/39 45/1/39
usemtl RedButton
f 76/1/71 75/1/71 79/1/71 80/1/71
f 80/1/1 79/1/1 81/1/1 82/1/1
f 75/1/46 77/1/46 81/1/46 79/1/46
f 78/1/6 76/1/6 80/1/6 82/1/6
f 77/1/75 78/1/75 82/1/75 81/1/75
